<?xml version="1.0"?>
<svg xmlns="http://www.w3.org/2000/svg" height="512px" viewBox="-40 0 384 384" width="512px" class="hovered-paths"><g><path d="m192 144-128 224v-160h-48v-192h152l-40 128zm0 0" fill="#4dd0e1" data-original="#4DD0E1" class="active-path" style="fill:#FFE529" data-old_color="#4dd0e1"/><g fill="#012e52"><path d="m205.839844 135.96875c-2.863282-4.929688-8.136719-7.96875-13.839844-7.96875h-42.238281l33.511719-107.222656c1.511718-4.855469.628906-10.152344-2.386719-14.25-3.015625-4.09375-7.796875-6.527344-12.886719-6.527344h-152c-8.832031 0-16 7.167969-16 16v192c0 8.832031 7.167969 16 16 16h32v144c0 7.257812 4.878906 13.601562 11.894531 15.464844 1.363281.367187 2.746094.535156 4.105469.535156 5.640625 0 10.992188-2.992188 13.886719-8.0625l128-224c2.832031-4.953125 2.816406-11.042969-.046875-15.96875zm-125.839844 171.785156v-99.753906c0-8.832031-7.167969-16-16-16h-32v-160h114.238281l-33.511719 107.222656c-1.511718 4.855469-.628906 10.152344 2.386719 14.25 3.015625 4.09375 7.796875 6.527344 12.886719 6.527344h36.433594zm0 0" data-original="#012E52" class="hovered-path" style="fill:#EB7D16" data-old_color="#012E52"/><path d="m274.527344 224.144531c-5.6875-9.960937-16.34375-16.144531-27.808594-16.144531h-13.4375c-11.472656 0-22.128906 6.183594-27.816406 16.144531l-25.3125 44.289063c-2.710938 4.796875-4.152344 10.261718-4.152344 15.804687v83.761719c0 8.832031 7.167969 16 16 16s16-7.167969 16-16l-.015625-40h64.015625v40c0 8.832031 7.167969 16 16 16s16-7.167969 16-16v-83.761719c0-5.542969-1.441406-11.007812-4.183594-15.855469zm-66.550782 71.855469-.007812-11.742188 25.3125-44.257812 13.472656.015625 25.246094 44.222656v11.761719zm0 0" data-original="#012E52" class="hovered-path" style="fill:#EB7D16" data-old_color="#012E52"/></g></g> </svg>
