<?xml version="1.0" encoding="iso-8859-1"?>
<!-- Generator: Adobe Illustrator 19.0.0, SVG Export Plug-In . SVG Version: 6.00 Build 0)  -->
<svg version="1.1" id="Capa_1" xmlns="http://www.w3.org/2000/svg" xmlns:xlink="http://www.w3.org/1999/xlink" x="0px" y="0px"
	 viewBox="0 0 473.639 473.639" style="enable-background:new 0 0 473.639 473.639;" xml:space="preserve">
<rect x="8" y="24.86" style="fill:#29ABE2;" width="104" height="432"/>
<g>
	<rect x="8" y="360.86" style="fill:#0071BC;" width="104" height="96"/>
	<rect x="40" y="80.86" style="fill:#0071BC;" width="40" height="224"/>
</g>
<rect x="112" y="24.86" style="fill:#F15A24;" width="104" height="432"/>
<rect x="144" y="80.86" style="fill:#C1272D;" width="40" height="224"/>
<rect x="216" y="24.86" style="fill:#FBB03B;" width="104" height="432"/>
<rect x="248" y="80.86" style="fill:#F7931E;" width="40" height="224"/>
<rect x="340.798" y="20.851" transform="matrix(-0.9952 0.0975 -0.0975 -0.9952 806.824 434.2623)" style="fill:#C69C6D;" width="104" height="431.999"/>
<g>
	
		<rect x="368.161" y="77.045" transform="matrix(-0.9952 0.0975 -0.0975 -0.9952 792.9088 339.3305)" style="fill:#8C6239;" width="40" height="223.999"/>
	
		<rect x="357.207" y="356.062" transform="matrix(-0.9952 0.0975 -0.0975 -0.9952 855.8714 766.288)" style="fill:#8C6239;" width="104" height="96"/>
</g>
<rect x="112" y="360.86" style="fill:#C1272D;" width="104" height="96"/>
<rect x="216" y="360.86" style="fill:#F7931E;" width="104" height="96"/>
<g>
	<circle style="fill:#FBB03B;" cx="60" cy="408.86" r="16"/>
	<circle style="fill:#FBB03B;" cx="164" cy="408.86" r="16"/>
</g>
<circle style="fill:#F15A24;" cx="268" cy="408.86" r="16"/>
<circle style="fill:#FBB03B;" cx="408.32" cy="405.18" r="16"/>
<path d="M40,312.86h40c4.418,0,8-3.582,8-8v-224c0-4.418-3.582-8-8-8H40c-4.418,0-8,3.582-8,8v224
	C32,309.279,35.582,312.86,40,312.86z M48,88.86h24v208H48V88.86z"/>
<path d="M60,432.86c13.255,0,24-10.745,24-24s-10.745-24-24-24s-24,10.745-24,24S46.745,432.86,60,432.86L60,432.86z M60,400.86
	c4.418,0,8,3.582,8,8s-3.582,8-8,8s-8-3.582-8-8S55.582,400.86,60,400.86z"/>
<path d="M144,312.86h40c4.418,0,8-3.582,8-8v-224c0-4.418-3.582-8-8-8h-40c-4.418,0-8,3.582-8,8v224
	C136,309.279,139.582,312.86,144,312.86z M152,88.86h24v208h-24V88.86z"/>
<path d="M164,432.86c13.255,0,24-10.745,24-24s-10.745-24-24-24s-24,10.745-24,24S150.745,432.86,164,432.86L164,432.86z
	 M164,400.86c4.418,0,8,3.582,8,8s-3.582,8-8,8s-8-3.582-8-8S159.582,400.86,164,400.86z"/>
<path d="M248,312.86h40c4.418,0,8-3.582,8-8v-224c0-4.418-3.582-8-8-8h-40c-4.418,0-8,3.582-8,8v224
	C240,309.279,243.582,312.86,248,312.86z M256,88.86h24v208h-24V88.86z"/>
<path d="M268,432.86c13.255,0,24-10.745,24-24s-10.745-24-24-24s-24,10.745-24,24S254.745,432.86,268,432.86L268,432.86z
	 M268,400.86c4.418,0,8,3.582,8,8s-3.582,8-8,8s-8-3.582-8-8S263.582,400.86,268,400.86z"/>
<path d="M428.584,10.596c-1.644-1.337-3.746-1.978-5.856-1.784l-98.2,9.648c-1.302-0.999-2.887-1.559-4.528-1.6H8
	c-4.418,0-8,3.582-8,8v432c0,4.418,3.582,8,8,8h312c4.418,0,8-3.582,8-8V190.572l26.168,267.088c0.411,4.088,3.851,7.2,7.96,7.2
	c0.256,0,0.52,0,0.8-0.04L466.4,454.684c4.398-0.421,7.623-4.327,7.202-8.725c-0.001-0.006-0.001-0.012-0.002-0.018L431.472,15.996
	C431.264,13.885,430.225,11.942,428.584,10.596z M104,448.86H16v-80h88V448.86z M104,352.86H16v-320h88V352.86z M208,448.86h-88v-80
	h88V448.86z M208,352.86h-88v-320h88V352.86z M312,448.86h-88v-80h88V448.86z M312,352.86h-88v-320h88V352.86z M456.896,439.54
	l-87.584,8.576l-7.8-79.616l87.584-8.584L456.896,439.54z M359.952,352.58l-31.2-318.48l87.576-8.584l31.2,318.472L359.952,352.58z"
	/>
<path d="M396.336,67.676l-39.808,3.896c-4.398,0.421-7.623,4.327-7.202,8.725c0.001,0.006,0.001,0.012,0.002,0.019L371.2,303.26
	c0.411,4.088,3.851,7.2,7.96,7.2c0.256,0,0.52,0,0.8-0.04l39.816-3.896c4.398-0.421,7.623-4.327,7.202-8.725
	c-0.001-0.006-0.001-0.012-0.002-0.018L405.08,74.852C404.646,70.457,400.732,67.244,396.336,67.676z M386.336,293.716
	l-20.28-207.008l23.88-2.336l20.288,207.008L386.336,293.716z"/>
<path d="M393.088,423.724c4.275,3.536,9.652,5.466,15.2,5.456c0.8,0,1.6-0.04,2.4-0.12c13.19-1.293,22.835-13.034,21.544-26.224l0,0
	c-1.295-13.191-13.039-22.835-26.23-21.54c-13.191,1.295-22.835,13.039-21.54,26.23c0.622,6.337,3.737,12.167,8.658,16.206
	L393.088,423.724z M407.544,397.22c0.264,0,0.528-0.04,0.8-0.04c4.418,0.025,7.979,3.627,7.954,8.046
	c-0.023,4.092-3.131,7.506-7.202,7.914c-4.378,0.351-8.245-2.835-8.736-7.2C399.942,401.55,403.155,397.65,407.544,397.22
	L407.544,397.22z"/>
<g>
</g>
<g>
</g>
<g>
</g>
<g>
</g>
<g>
</g>
<g>
</g>
<g>
</g>
<g>
</g>
<g>
</g>
<g>
</g>
<g>
</g>
<g>
</g>
<g>
</g>
<g>
</g>
<g>
</g>
</svg>
