<?xml version="1.0"?>
<svg xmlns="http://www.w3.org/2000/svg" viewBox="0 0 64 64" width="512" height="512"><g id="Filled_outline" data-name="Filled outline"><polyline points="20 57 24 15 40 15 44 57" style="fill:#cdeef6"/><rect x="12" y="57" width="40" height="4" style="fill:#dd3e46"/><polygon points="11 29 16 29 13 34 18 34 11 45 11 38 6 38 11 29" style="fill:#e97424"/><polygon points="52 23 57 23 54 28 59 28 52 39 52 32 47 32 52 23" style="fill:#e97424"/><path d="M12,18v2h6V18H16V16h2V14H16V12h9v2H24a1,1,0,0,0-1,.9L19.091,56H11v6H53V56H44.909L41,14.905a1,1,0,0,0-1-.9H39V12h9v2H46v2h2v2H46v2h6V18H50V16h2V14H50V10H46.414l-4-4H39V3a1,1,0,0,0-1-1H26a1,1,0,0,0-1,1V6H21.586l-4,4H14v4H12v2h2v2ZM39,8h2.586l2,2H39ZM24.164,23.829l5.841,3.382-6.523,3.776ZM35.945,21h-7.89L32,19.376Zm-6.89-5h5.89L32,17.212Zm8.222,7L32,26.055,26.723,23Zm-12.2,23H38.921L32,49.611ZM39.921,56H24.079L32,51.867ZM24.765,44,32,39.866,39.235,44Zm1-10h12.47L32,37.563Zm-.042-2L32,28.366,38.277,32Zm-2.6,2.791,6.865,3.923-7.656,4.375ZM21.991,46.645l7.847,4.094L21.17,55.261ZM51,58v2H13V58Zm-8.17-2.739-8.668-4.522,7.847-4.094Zm-1.95-20.47.791,8.3-7.656-4.375Zm-.362-3.8-6.523-3.776,5.841-3.382ZM39.133,16.439,39.5,20.3l-4.873-2.007ZM27,4H37V6H27Zm0,4H37v2H27Zm0,4H37v2H27Zm2.373,6.294L24.5,20.3l.367-3.862ZM22.414,8H25v2H20.414Z"/><path d="M10.126,28.514l-5,9A1,1,0,0,0,6,39h4v6a1,1,0,0,0,1.844.537l7-11A1,1,0,0,0,18,33H14.766l2.091-3.485A1,1,0,0,0,16,28H11A1,1,0,0,0,10.126,28.514ZM14.234,30l-2.091,3.485A1,1,0,0,0,13,35h3.178L12,41.566V38a1,1,0,0,0-1-1H7.7l3.888-7Z"/><path d="M59.876,27.519A1,1,0,0,0,59,27H55.766l2.091-3.485A1,1,0,0,0,57,22H52a1,1,0,0,0-.874.514l-5,9A1,1,0,0,0,47,33h4v6a1,1,0,0,0,1.844.537l7-11A1,1,0,0,0,59.876,27.519ZM53,35.566V32a1,1,0,0,0-1-1H48.7l3.888-7h2.646l-2.091,3.485A1,1,0,0,0,54,29h3.178Z"/></g></svg>
