<svg height="512pt" viewBox="-57 0 512 512.002" width="512pt" xmlns="http://www.w3.org/2000/svg"><path d="m80.414062 441.257812h-.265624c-38.742188 0-70.148438-31.40625-70.148438-70.148437v-135.632813c0-38.742187 31.40625-70.148437 70.148438-70.148437h.265624c38.742188 0 70.148438 31.40625 70.148438 70.148437v135.632813c-.003906 38.742187-31.410156 70.148437-70.148438 70.148437zm0 0" fill="#579fff"/><path d="m277.902344 10c-61.21875 0-110.839844 49.621094-110.839844 110.828125 0 61.210937 49.621094 110.84375 110.839844 110.84375 61.210937 0 110.832031-49.632813 110.832031-110.84375 0-61.207031-49.621094-110.828125-110.832031-110.828125zm0 91.101562c-14.476563 0-26.21875-11.742187-26.21875-26.222656 0-14.480468 11.742187-26.21875 26.21875-26.21875 14.472656 0 26.210937 11.738282 26.210937 26.21875 0 14.480469-11.738281 26.222656-26.210937 26.222656zm0 0" fill="#e8e7e9"/><path d="m323.191406 222.015625v45.472656l-14.378906 18.457031 14.378906 19.394532-27.089844 45.777344 27.085938 46.117187-19.023438 31.648437 19.023438 32.007813-30.4375 41.109375h-27.464844l-27.15625-41.113281v-236.578125c12.34375 4.75 25.75 7.351562 39.765625 7.351562 16.140625 0 31.46875-3.445312 45.296875-9.644531zm0 0" fill="#e8e7e9"/><path d="m10 234.316406h140.5625v137.957032h-140.5625zm0 0" fill="#ffbd5a"/><g fill="#231f20"><path d="m350.808594 110.832031c-5.523438 0-10 4.476563-10 10 0 34.6875-28.21875 62.910157-62.910156 62.910157-34.6875 0-62.90625-28.222657-62.90625-62.910157 0-5.523437-4.480469-10-10-10-5.523438 0-10 4.476563-10 10 0 45.714844 37.191406 82.910157 82.90625 82.910157 45.71875 0 82.910156-37.191407 82.910156-82.910157 0-5.519531-4.476563-10-10-10zm0 0"/><path d="m398.734375 120.828125c0-66.625-54.207031-120.828125-120.832031-120.828125-46.453125 0-86.863282 26.351562-107.082032 64.890625-51.476562.308594-93.730468 40.238281-97.75 90.769531-40.164062 3.53125-71.898437 36.804688-73.0117182 77.601563-.0390626.347656-.0585938.699219-.0585938 1.050781v137.957031c0 .347657.0195312.695313.0585938 1.035157 1.1679682 43.179687 36.6328122 77.953124 80.0898442 77.953124h.265624c43.449219 0 78.910157-34.761718 80.089844-77.933593.035156-.347657.058594-.695313.058594-1.054688v-137.953125c0-.355468-.023438-.707031-.058594-1.054687-1.0625-38.878907-29.929687-70.933594-67.40625-76.917969 3.382813-37.015625 32.503906-66.683594 69.265625-70.921875-3.441406 11.203125-5.296875 23.09375-5.296875 35.410156 0 48.898438 29.191406 91.105469 71.066406 110.105469v229.953125c0 1.960937.574219 3.875 1.652344 5.511719l27.160156 41.113281c1.851563 2.800781 4.984376 4.488281 8.34375 4.488281h27.460938c3.167969 0 6.148438-1.503906 8.035156-4.050781l30.441406-41.113281c2.394532-3.238282 2.617188-7.597656.558594-11.058594l-15.96875-26.867188 15.945313-26.527343c1.886719-3.136719 1.90625-7.058594.050781-10.214844l-24.101562-41.03125 24.085937-40.703125c2.046875-3.464844 1.820313-7.816406-.574219-11.046875l-9.851562-13.292969 9.707031-12.460937c1.367187-1.753907 2.109375-3.917969 2.109375-6.144531v-39.230469c38.894531-20.105469 65.546875-60.710938 65.546875-107.433594zm-258.171875 241.441406h-120.5625v-117.957031h120.5625zm-60.148438 68.988281h-.265624c-29.351563 0-53.84375-21.140624-59.09375-48.988281h118.453124c-5.253906 27.851563-29.746093 48.988281-59.09375 48.988281zm59.09375-206.945312h-118.453124c4.804687-25.46875 25.707031-45.308594 51.699218-48.511719v14.667969c0 5.523438 4.476563 10 10 10 5.523438 0 10-4.476562 10-10v-13.863281c23.671875 4.957031 42.257813 23.875 46.753906 47.707031zm173.683594 12.121094v27.621094l-12.265625 15.746093c-2.761719 3.542969-2.820312 8.488281-.148437 12.097657l10.425781 14.0625-23.707031 40.0625c-1.855469 3.132812-1.859375 7.023437-.019532 10.160156l24.082032 40.992187-15.964844 26.558594c-1.898438 3.152344-1.90625 7.09375-.027344 10.261719l15.628906 26.289062-23.484374 31.714844h-17.046876l-22.535156-34.117188v-219.917968c3.546875.902344 7.144532 1.636718 10.753906 2.207031v162.136719c0 5.523437 4.476563 10 10 10 5.523438 0 10-4.476563 10-10v-160.652344c11.597657-.089844 23.210938-1.832031 34.308594-5.222656zm-19.929687-15.929688c-13.203125 2.011719-26.804688 1.40625-39.765625-1.828125-3.640625-.910156-7.230469-2.023437-10.746094-3.332031-38.320312-14.296875-65.6875-51.269531-65.6875-94.515625 0-12.65625 2.351562-24.773437 6.632812-35.945313h59.402344c.898438 3.109376 2.1875 6.054688 3.835938 8.765626 6.359375 10.453124 17.863281 17.453124 30.96875 17.453124 10.941406 0 20.757812-4.886718 27.402344-12.582031 5.484374-6.351562 8.8125-14.609375 8.8125-23.640625 0-7.488281-2.285157-14.453125-6.195313-20.234375-6.515625-9.636719-17.539063-15.984375-30.019531-15.984375-16.5 0-30.453125 11.097656-34.804688 26.21875h-49.042968c18.105468-27.039062 48.929687-44.878906 83.847656-44.878906 55.597656 0 100.832031 45.230469 100.832031 100.828125 0 50.386719-37.136719 92.257813-85.472656 99.675781zm.851562-145.625c0 4.015625-1.472656 7.6875-3.894531 10.519532-2.980469 3.480468-7.390625 5.699218-12.320312 5.699218-5.167969 0-9.765626-2.441406-12.738282-6.214844h12.738282c5.523437 0 10-4.480468 10-10 0-5.523437-4.476563-10-10-10h-12.738282c2.96875-3.78125 7.570313-6.21875 12.738282-6.21875 5.589843 0 10.527343 2.839844 13.445312 7.15625 1.746094 2.585938 2.769531 5.707032 2.769531 9.058594zm0 0"/><path d="m278.117188 436.019531c-1.585938-3.875-5.59375-6.386719-9.769532-6.160156-4.164062.226563-7.816406 3.097656-9.03125 7.078125-1.195312 3.925781.207032 8.347656 3.480469 10.832031 3.382813 2.570313 8.097656 2.726563 11.640625.378907 3.917969-2.597657 5.488281-7.792969 3.679688-12.128907zm0 0"/><path d="m52.335938 294.007812h56.835937c5.523437 0 10-4.476562 10-10 0-5.523437-4.476563-10-10-10h-56.835937c-5.523438 0-10 4.476563-10 10 0 5.523438 4.476562 10 10 10zm0 0"/><path d="m52.335938 332.578125h56.835937c5.523437 0 10-4.476563 10-10s-4.476563-10-10-10h-56.835937c-5.523438 0-10 4.476563-10 10s4.476562 10 10 10zm0 0"/><path d="m329.925781 88.539062c1.582031 3.792969 5.425781 6.308594 9.546875 6.175782 4.011719-.128906 7.617188-2.730469 9.035156-6.476563 1.488282-3.941406.273438-8.585937-3.007812-11.253906-3.289062-2.667969-8.011719-3.003906-11.617188-.761719-4.109374 2.550782-5.816406 7.855469-3.957031 12.316406zm0 0"/></g></svg>