<svg id="Layer_3" enable-background="new 0 0 64 64" height="512" viewBox="0 0 64 64" width="512" xmlns="http://www.w3.org/2000/svg"><g><path d="m6 34v-28c0-1.105.895-2 2-2 1.105 0 2 .895 2 2v28z" fill="#717d94"/><path d="m2 38h60v20h-60z" fill="#4d5d79"/><path d="m2 54h60v4h-60z" fill="#717d94"/><path d="m2 38h60v4h-60z" fill="#717d94"/><g fill="#4d5d79"><path d="m4 34h8v4h-8z"/><path d="m16 34h8v4h-8z"/><path d="m40 34h8v4h-8z"/><path d="m52 34h8v4h-8z"/></g><path d="m18 34v-19c0-1.105.895-2 2-2 1.105 0 2 .895 2 2v19z" fill="#717d94"/><path d="m42 34v-19c0-1.105.895-2 2-2 1.105 0 2 .895 2 2v19z" fill="#717d94"/><path d="m54 34v-28c0-1.105.895-2 2-2 1.105 0 2 .895 2 2v28z" fill="#717d94"/><path d="m4 58h8v4h-8z" fill="#4d5d79"/><path d="m52 58h8v4h-8z" fill="#4d5d79"/><path d="m6 46h24v4h-24z" fill="#f5b95b"/><circle cx="40" cy="48" fill="#f5b95b" r="2"/><circle cx="48" cy="48" fill="#f5b95b" r="2"/><circle cx="56" cy="48" fill="#f5b95b" r="2"/><g><path d="m62 37h-1v-3c0-.552-.448-1-1-1h-1v-27c0-1.654-1.346-3-3-3s-3 1.346-3 3v27h-1c-.552 0-1 .448-1 1v3h-2v-3c0-.552-.448-1-1-1h-1v-18c0-1.654-1.346-3-3-3s-3 1.346-3 3v18h-1c-.552 0-1 .448-1 1v3h-14v-3c0-.552-.448-1-1-1h-1v-18c0-1.654-1.346-3-3-3s-3 1.346-3 3v18h-1c-.552 0-1 .448-1 1v3h-2v-3c0-.552-.448-1-1-1h-1v-27c0-1.654-1.346-3-3-3s-3 1.346-3 3v27h-1c-.552 0-1 .448-1 1v3h-1c-.552 0-1 .448-1 1v20c0 .552.448 1 1 1h1v3c0 .552.448 1 1 1h8c.552 0 1-.448 1-1v-3h38v3c0 .552.448 1 1 1h8c.552 0 1-.448 1-1v-3h1c.552 0 1-.448 1-1v-20c0-.552-.448-1-1-1zm-7-31c0-.551.449-1 1-1s1 .449 1 1v27h-2zm-2 29h6v2h-6zm-10-20c0-.551.449-1 1-1s1 .449 1 1v18h-2zm-2 20h6v2h-6zm-22-20c0-.551.449-1 1-1s1 .449 1 1v18h-2zm-2 20h6v2h-6zm-10-29c0-.551.449-1 1-1s1 .449 1 1v27h-2zm-2 29h6v2h-6zm56 4v2h-58v-2zm0 4v10h-58v-10zm-50 18h-6v-2h6zm48 0h-6v-2h6zm-56-4v-2h58v2z"/><path d="m6 51h24c.552 0 1-.448 1-1v-4c0-.552-.448-1-1-1h-24c-.552 0-1 .448-1 1v4c0 .552.448 1 1 1zm15-2h-2v-2h2zm2-2h2v2h-2zm-6 2h-2v-2h2zm-4 0h-2v-2h2zm16 0h-2v-2h2zm-22-2h2v2h-2z"/><path d="m40 51c1.654 0 3-1.346 3-3s-1.346-3-3-3-3 1.346-3 3 1.346 3 3 3zm0-4c.551 0 1 .449 1 1s-.449 1-1 1-1-.449-1-1 .449-1 1-1z"/><path d="m48 51c1.654 0 3-1.346 3-3s-1.346-3-3-3-3 1.346-3 3 1.346 3 3 3zm0-4c.551 0 1 .449 1 1s-.449 1-1 1-1-.449-1-1 .449-1 1-1z"/><path d="m56 51c1.654 0 3-1.346 3-3s-1.346-3-3-3-3 1.346-3 3 1.346 3 3 3zm0-4c.551 0 1 .449 1 1s-.449 1-1 1-1-.449-1-1 .449-1 1-1z"/><circle cx="32" cy="11" r="2"/><path d="m35.293 8.707 1.414-1.414-.586-.586c-1.1-1.101-2.564-1.707-4.121-1.707s-3.021.606-4.121 1.707l-.586.586 1.414 1.414.586-.586c1.446-1.446 3.968-1.446 5.414 0z"/><path d="m25.878 5.536c1.636-1.636 3.809-2.536 6.122-2.536 2.312 0 4.486.9 6.122 2.536l.171.171 1.414-1.414-.171-.171c-2.013-2.014-4.689-3.122-7.536-3.122s-5.523 1.108-7.536 3.122l-.171.171 1.414 1.414z"/></g></g></svg>